Patient4_TMGait_0pt2_01_left_21_EMG.mot
version=1
nRows=26
nColumns=33
inDegrees=no
endheader
time	1LAddLong	2LGlutMax	3LGlutMed	4LIliopsoas	5LSemiMemb	6LBicFemLong	7LRecFem	8LVastMed	9LVastLat	10LGasMed	11LTibAnt	12lTibPost	13LPeroneusLong	14LSol	15LExtDigLong	16LFlexDigLong	17RAddLong	18RGlutMax	19RGlutMed	20RIliopsoas	21RSemiMemb	22RBicFemLong	23RRecFem	24RVastMed	25RVastLat	26RGasMed	27RTibAnt	28RTibPost	29RPeroneusLong	30RSol	31RExtDigLong	32RFlexDigLong
49.055	-0.007782	0.040894	-0.10788	-0.009613	-0.10529	0.095367	-0.041351	-0.001984	-0.03418	0.035706	-0.005188	0.003662	-0.01358	-0.00351	0.020142	-0.048981	0.010223	-0.004578	-0.23407	0.009155	-0.13001	-0.03418	0	0.00824	0.06897	0.001831	-0.006714	-0.005035	-0.91156	-0.15472	-0.001068	-0.002289
49.056	0.005035	0.050201	0.02182	0.017548	-0.059814	0.001678	-0.080566	-0.001984	0.015259	0.02594	-0.006714	0.002747	-0.012665	-0.00061	0.087585	-0.055695	-0.008698	0.003204	-0.14023	0.06897	-0.22095	0.053711	0.020752	-0.008087	0.071106	-0.048523	0.011749	-0.010223	-0.40512	-0.039063	0.005341	-0.006409
49.057	0.014954	0.0354	0.055542	0.014801	0.074158	-0.10071	-0.051422	-0.004883	0.09613	0.055084	0.018616	0.012207	0.02182	0.008087	0.14282	-0.038605	0.016785	0.035858	-0.10239	0.11322	0.037689	-0.000305	0.056305	-0.018463	0.051727	-0.036926	-0.00885	-0.012665	-0.059814	0.10529	0.001068	-0.015869
49.058	0.040894	0.019226	0.088959	0.00885	0.097809	-0.15991	-0.013123	0.014954	0.1857	0.062714	-0.024719	-0.001678	0.04303	0.027771	0.073242	-0.03952	0.019989	0.084381	-0.13596	0.078735	0.059509	-0.039673	0.074005	-0.031433	0.057373	-0.042419	-0.024109	-0.011292	-0.002136	0.20309	0.000305	-0.019226
49.059	0.028076	-0.006104	0.081482	0.010681	0.055237	-0.10361	0.015106	0.008698	0.17487	0.05249	0.010529	0.002747	0.029297	0.032959	0.005951	-0.041046	0.013885	0.048523	-0.31509	0.042419	0.065765	-0.10895	0.061188	-0.015717	0.041656	-0.043182	-0.033112	-0.007019	-0.06073	0.12482	-0.00061	-0.014343
49.06	0.026245	0.040588	0.051727	0.00061	0.029755	-0.070648	0.063171	0.008545	0.071259	0.042572	-0.023956	0.007935	0.034027	0.041962	-0.005951	-0.032654	0.00946	0.027008	-0.41489	0.036926	0.027313	-0.12589	0.087433	-0.011902	0.041351	0.007324	-0.005188	0.003967	-0.003204	-0.01236	-0.000305	-0.019379
49.061	0.019836	0.030212	0.048828	-0.003662	0.031586	-0.090942	0.071259	0.057068	0.084076	0.020599	-0.096893	0.00473	0.030518	0.049438	-0.069275	-0.050201	0.022583	-0.03479	-0.33829	0.017242	-0.051575	-0.091705	0.073242	-0.10727	0.03006	0.016327	0.053101	-0.020905	0.020142	-0.11322	0.001526	-0.02655
49.062	0.013885	0.067749	0.012512	0.006714	0.025177	-0.043945	0.019684	0.023346	0.15518	0.034332	-0.028076	0.005188	-0.020447	0.064087	-0.15381	-0.027466	0.003815	0.03006	-0.34714	0.008087	-0.080261	-0.057526	0.084839	-0.037384	0.055084	0.006256	0.077209	0.014191	-0.067291	-0.19501	0.001678	-0.023346
49.063	-0.00351	0.099487	-0.029144	0.002136	0.027008	-0.028534	0.005798	0.023346	0.10529	0.052185	-0.021973	0.002747	-0.075531	0.065308	-0.23895	-0.037537	-0.010986	-0.000305	-0.27191	0.000763	-0.096283	0.087738	0.087433	-0.009003	0.067139	-0.019989	0.050049	0.040894	-0.11154	-0.12131	-0.00061	-0.010681
49.064	0.002899	0.095978	-0.092163	0.020294	0.014648	-0.092468	-0.08667	0.020447	-0.003052	0.031738	-0.033875	0.006256	-0.025635	0.065308	-0.21988	-0.042419	-0.010223	0.040131	-0.063934	-0.012512	0.028381	0.11383	0.02594	0.021973	0.048523	-0.001068	-0.016785	-0.001984	-0.092316	0.10025	-0.000305	-0.00824
49.065	0.024414	0.14496	-0.077667	0.011749	0.008392	-0.21225	-0.085449	-0.000305	-0.21576	-0.015259	0.001221	0.002747	0.088806	0.097809	-0.12238	-0.028992	-0.010986	0.027466	-0.18936	0.018311	0.15198	0.001526	0.066528	-0.050049	0.052643	0	-0.075073	-0.007019	0.014191	0.3093	-0.000305	-0.006866
49.066	0.03067	0.18539	0.050354	0.00824	0.020447	-0.23529	-0.086365	-0.015259	-0.2771	0.011444	-0.068207	0.007019	0.12039	0.031433	0.032043	-0.033417	0.006866	0.029907	-0.31723	0.037384	0.12146	0.017395	0.10483	-0.087128	0.038147	0.01236	-0.16357	-0.003967	0.1091	0.16876	-0.001068	-0.00824
49.067	0.029755	0.23743	0.090027	-0.001526	-0.003662	-0.18188	-0.081177	-0.013275	-0.02655	0.019226	0.024719	0.013885	0.033112	-0.046692	0.19257	-0.035248	0.007477	0.03418	-0.20981	0.048065	0.031433	0.039825	0.09552	-0.10956	0.036011	0.00473	-0.18967	-0.00885	0.14023	-0.007324	-0.00061	-0.00885
49.068	0.035095	0.2359	-0.014801	-0.004578	-0.004883	-0.15701	-0.016022	-0.014038	0.11276	0.027008	0.057068	0.016174	-0.023499	-0.035858	0.22079	-0.036011	-0.001678	-0.016174	-0.14206	-0.009003	-0.074615	0.005798	0.054474	-0.044556	0.047455	0.001068	0.13138	-0.00473	0.066376	-0.035858	0.000305	-0.004272
49.069	0.020294	0.15991	-0.084991	0.000916	-0.048828	-0.070953	0.040436	-0.005035	0.084991	0.025177	0.050812	0.006866	0.006561	-0.090637	0.11337	-0.040588	-0.018005	-0.011597	-0.076294	-0.10407	-0.083923	-0.029144	0.036774	-0.016937	0.049286	-0.000305	-0.057983	-0.009155	0.001221	-0.047302	0.009003	-0.008087
49.07	0.008545	0.13107	0.071411	-0.007172	-0.033417	0.036926	0.039063	0.000916	0.064697	0.020294	-0.001678	0.027313	-0.000305	-0.020142	-0.005646	-0.027771	-0.009003	-0.001221	-0.13748	-0.12283	0.025177	-0.083923	0.062103	-0.020599	0.054016	-0.004883	-0.013428	-0.006866	0.014038	-0.074005	-0.000916	-0.007935
49.071	0.060272	0.12039	0.24826	0.011444	0.000763	0.079498	0.075836	-0.005951	-0.041656	0.016479	-0.037079	0.014191	0.025177	-0.021057	-0.014954	-0.0383	-0.010071	-0.014648	-0.15549	-0.066681	0.096283	-0.10605	0.074768	0.001678	0.042572	-0.003815	-0.18188	-0.00351	0.050201	-0.17761	0.000305	-0.009308
49.072	-0.027618	0.10605	0.059967	0.015717	0.003052	0.087585	0.059967	-0.009308	-0.077362	0.019836	-0.080719	0.003662	0.030212	-0.034943	0.12405	-0.028992	-0.000916	-0.013123	-0.15259	-0.009155	0.14069	-0.11658	0.057831	0.00061	0.061188	-0.001984	-0.11902	-0.003815	-0.007172	-0.21744	-0.000305	-0.005341
49.073	-0.010681	0.11551	0.062561	0.005493	-0.005188	0.11551	0.073242	-0.018311	-0.12573	0.010681	-0.047455	-0.003967	0.036621	-0.006256	0.078125	-0.03067	0.031891	-0.019073	-0.003357	-0.019989	0.07019	-0.12909	0.10315	-0.016174	0.028839	0.001373	0.12482	-0.000916	0.006256	-0.1059	0.002136	-0.014038
49.074	-0.010071	0.13245	0.036316	-0.000458	-0.044708	0.15457	0.14618	-0.008087	-0.16464	0.016632	0.074158	0.009918	0.052643	-0.042877	0.002899	-0.028839	0.028839	-0.029755	0.01236	-0.10849	-0.034332	-0.016022	0.10452	-0.069885	0.029297	0.002136	0.088196	-0.005646	-0.053101	-0.056	0.000763	-0.014343
49.075	-0.01358	0.063934	-0.018158	-0.000153	-0.088348	0.19302	0.15945	0.002594	-0.14877	0.012665	0.10834	0.006866	0.018158	-0.037842	-0.049286	-0.033875	0.014648	0.016174	-0.20081	0.038605	-0.075226	-0.005493	0.067902	0.00946	0.041504	-0.004425	0.15717	0.001984	-0.083313	-0.055695	0.000458	-0.016785
49.076	-0.015564	0.039063	-0.049438	0.016785	-0.10559	0.22797	0.12207	0.008698	-0.14053	0.035858	0.05249	0.000763	-0.013428	-0.044556	-0.09079	-0.0354	0.007324	-0.01709	-0.25146	0.29221	0.02243	-0.050964	0.081482	0.014038	0.039825	-0.007324	0.11963	-0.005646	-0.065308	0.005798	-0.002747	-0.014954
49.077	-0.016937	-0.02243	-0.057526	0.022888	-0.040588	0.096283	0.073242	0.03006	-0.12787	0.043793	0.039825	-0.000763	-0.010681	-0.042419	-0.083618	-0.040741	0.008392	-0.01709	0.21957	0.27451	0.011749	-0.015411	0.097656	-0.001068	0.030975	-0.005951	0.11643	-0.003662	-0.059052	0.035858	-0.000305	-0.012207
49.078	-0.013733	-0.046997	0.002136	-0.004883	0.03891	-0.1796	0.036774	0.018921	-0.087128	0.026398	0.11673	0.004578	-0.010681	0.007782	-0.10757	-0.040436	0.016937	0.057526	0.18875	0.096741	-0.03891	0.019684	0.084686	-0.013123	0.03952	-0.007629	0.24292	-0.007172	-0.011749	-0.0383	-0.002136	-0.016174
49.079	-0.016785	-0.029602	-0.032654	0.001526	-0.000916	-0.18188	0.017242	0.014343	-0.042877	-0.000305	0.14175	-0.010071	0.033264	0.02594	0.32288	-0.029297	0.003357	0.001984	-0.053101	0.049286	-0.12619	0.055237	0.097809	0.000305	0.039063	0	0.1973	-0.008087	0.039825	-0.11368	0.002441	-0.018158
49.08	-0.02182	0.003815	-0.066528	0.008698	-0.061493	-0.08606	-0.041351	-0.005493	-0.013123	0.015717	0.06134	0.001831	0.048828	0.076141	-0.042419	-0.035706	-0.001068	0.006409	0.058136	-0.012817	-0.16403	-0.014801	0.07309	-0.022736	0.044861	0.002899	0.034027	-0.010681	-0.044556	-0.095215	-0.002441	-0.009918
